<mxfile host="app.diagrams.net" modified="2024-07-17T10:22:39.077Z" agent="Mozilla/5.0 (X11; Linux x86_64) AppleWebKit/537.36 (KHTML, like Gecko) Chrome/126.0.0.0 Safari/537.36" etag="17aBMtRZtHtdZNMWXiYw" version="24.7.0" type="device">
  <diagram name="Page-1" id="wzrQoAwrZbd2-Y9_Lqys">
    <mxGraphModel dx="880" dy="560" grid="1" gridSize="10" guides="1" tooltips="1" connect="1" arrows="1" fold="1" page="1" pageScale="1" pageWidth="827" pageHeight="1169" math="0" shadow="0">
      <root>
        <mxCell id="0" />
        <mxCell id="1" parent="0" />
        <mxCell id="c6TlyrICM2L1N3XVoZza-1" value="Item" style="swimlane;childLayout=stackLayout;horizontal=1;startSize=50;horizontalStack=0;rounded=1;fontSize=14;fontStyle=0;strokeWidth=2;resizeParent=0;resizeLast=1;shadow=0;dashed=0;align=center;arcSize=4;whiteSpace=wrap;html=1;" vertex="1" parent="1">
          <mxGeometry x="190" y="200" width="160" height="150" as="geometry" />
        </mxCell>
        <mxCell id="c6TlyrICM2L1N3XVoZza-2" value="+name&lt;br&gt;+description&lt;br&gt;+category&lt;div&gt;+price&lt;/div&gt;&lt;div&gt;+count&lt;/div&gt;&lt;div&gt;+URL&lt;/div&gt;" style="align=left;strokeColor=none;fillColor=none;spacingLeft=4;fontSize=12;verticalAlign=top;resizable=0;rotatable=0;part=1;html=1;" vertex="1" parent="c6TlyrICM2L1N3XVoZza-1">
          <mxGeometry y="50" width="160" height="100" as="geometry" />
        </mxCell>
        <mxCell id="c6TlyrICM2L1N3XVoZza-3" value="Category" style="swimlane;childLayout=stackLayout;horizontal=1;startSize=50;horizontalStack=0;rounded=1;fontSize=14;fontStyle=0;strokeWidth=2;resizeParent=0;resizeLast=1;shadow=0;dashed=0;align=center;arcSize=4;whiteSpace=wrap;html=1;" vertex="1" parent="1">
          <mxGeometry x="490" y="215" width="160" height="120" as="geometry" />
        </mxCell>
        <mxCell id="c6TlyrICM2L1N3XVoZza-4" value="+name&lt;br&gt;+description&lt;br&gt;+URL" style="align=left;strokeColor=none;fillColor=none;spacingLeft=4;fontSize=12;verticalAlign=top;resizable=0;rotatable=0;part=1;html=1;" vertex="1" parent="c6TlyrICM2L1N3XVoZza-3">
          <mxGeometry y="50" width="160" height="70" as="geometry" />
        </mxCell>
        <mxCell id="c6TlyrICM2L1N3XVoZza-6" style="edgeStyle=orthogonalEdgeStyle;rounded=0;orthogonalLoop=1;jettySize=auto;html=1;entryX=0;entryY=0.5;entryDx=0;entryDy=0;" edge="1" parent="1" source="c6TlyrICM2L1N3XVoZza-2" target="c6TlyrICM2L1N3XVoZza-4">
          <mxGeometry relative="1" as="geometry" />
        </mxCell>
        <mxCell id="c6TlyrICM2L1N3XVoZza-7" value="M:1" style="edgeLabel;html=1;align=center;verticalAlign=middle;resizable=0;points=[];fontSize=14;" vertex="1" connectable="0" parent="c6TlyrICM2L1N3XVoZza-6">
          <mxGeometry x="0.1571" y="-2" relative="1" as="geometry">
            <mxPoint x="-18" y="-2" as="offset" />
          </mxGeometry>
        </mxCell>
      </root>
    </mxGraphModel>
  </diagram>
</mxfile>
